<svg xmlns="http://www.w3.org/2000/svg" width="1024" height="1024" style="shape-rendering:geometricPrecision;text-rendering:geometricPrecision;image-rendering:optimizeQuality;fill-rule:evenodd;clip-rule:evenodd"><path fill="#7d4ad9" d="M-.5-.5h1024v1024H-.5z" style="opacity:1"/><path fill="#cdbcee" d="M401.5 297.5q7.207-1.481 15-1 .482 8.29-1 16v-15z" style="opacity:1"/><path fill="#fcfcfe" d="M401.5 297.5h14v15a589 589 0 0 1-3.5 55 34.7 34.7 0 0 1-6.5 7.5 8729 8729 0 0 0-106-.5 41656 41656 0 0 1-8 269 185.7 185.7 0 0 1-32 3 3942 3942 0 0 0 5.5-262q-6.441-11.178-19.5-9-9.987.832-20 1a49.4 49.4 0 0 0-1-11 574 574 0 0 1 46-6.5q54.49-1.71 109-3 12.972-3.98 15.5-17.5a903 903 0 0 0 6.5-41" style="opacity:1"/><path fill="#e1d9f2" d="M733.5 361.5h28v29h-28z" style="opacity:1"/><path fill="#fefffe" d="M734.5 362.5h26v27h-26z" style="opacity:1"/><path fill="#fcfcfe" d="M680.5 396.5h8a320 320 0 0 1-6 26.5 461 461 0 0 0-70 7q-41.78 6.777-56.5 46.5-6.624 15.019-9 31 40.673-44.156 95.5-19.5 19.995 14.723 23.5 39.5 5.754 48.194-20 89-42.375 54.48-106.5 28.5-18.678-13.2-24.5-35.5-14.51-76.427 20-146 28.638-52.57 88.5-60.5a815 815 0 0 1 57-6.5" style="opacity:1"/><path fill="#fbf9fd" d="M755.5 437.5v213h-16a7570 7570 0 0 1-.5-213q8.399-1.987 16.5 0" style="opacity:1"/><path fill="#dfd5f4" d="M755.5 437.5q1.499 106.747 1 214-8.787.483-17-1h16z" style="opacity:1"/><path fill="#fcfbfd" d="M409.5 465.5q26.315-2.84 50 8.5 15.955 9.984 20.5 28.5a2518 2518 0 0 1 2 97 282.5 282.5 0 0 0 4.5 40 111 111 0 0 1-21 1 399 399 0 0 0-4-28q-32.56 43.034-85 28.5-34.81-16.84-29.5-55.5 4.623-25.599 27.5-37.5a114.4 114.4 0 0 1 34-10 456 456 0 0 1 53-4.5q.8-18.654-5.5-36-6.784-11.019-19.5-13.5-22.415-4.744-43 5-14.909 10.086-19 27.5a345 345 0 0 0-20-6q8.052-28.818 36-40.5a186 186 0 0 1 19-4.5" style="opacity:1"/><path fill="#7d4ad9" d="M593.5 501.5q34.959-4.727 43.5 29 6.367 44.181-20 80-21.991 25.381-54.5 17.5-13.75-5.75-19.5-19.5a91.9 91.9 0 0 1-5-21 198.5 198.5 0 0 1 3-51q20.186-26.993 52.5-35M447.5 550.5h13v41q-15.357 27.602-46 35.5-23.89 4.866-40.5-12.5-18.239-45.771 29.5-58.5a270 270 0 0 1 44-5.5" style="opacity:1"/><path fill="#a790d8" d="M447.5 550.5q6.705-1.479 14-1a442 442 0 0 1-1 42v-41z" style="opacity:1"/></svg>