<svg xmlns="http://www.w3.org/2000/svg" width="200" height="210" style="shape-rendering:geometricPrecision;text-rendering:geometricPrecision;image-rendering:optimizeQuality;fill-rule:evenodd;clip-rule:evenodd"><path fill="#7d4bd7" d="M89.5 8.5q66.439-2.67 98.5 55 27.825 66.827-23.5 117.5-47.71 38.53-105 16Q-3.37 164.536 2 93.5q15.02-72.27 87.5-85m-3 23q41.214-4.847 70.5 24 25.33 33.148 15 74-17.851 51.813-73 53-58.21-2.234-74-58-7.912-39.981 18-71 18.49-17.62 43.5-22" style="opacity:.998"/><path fill="#7d4bd7" d="M66.5 51.5q6.154-1.095 10.5 3a396 396 0 0 1 11.5 24q-2.22 6.966-7.5 12-1 2 0 4a534 534 0 0 0 25 30q2.468 3.243 6.5 4a64 64 0 0 0 7-6.5 12.5 12.5 0 0 1 7 0 106.5 106.5 0 0 1 21.5 14.5 15.3 15.3 0 0 0 1.5 4.5q-4.06 17.053-20.5 22.5-14.715-3.233-26.5-12.5Q71.575 124.884 54 88.5q-11.763-24.967 12.5-37" style="opacity:1"/><path fill="#f5f6f5" d="M42.5 100.5q2.748.96 1 3-1.329-1.238-1-3" style="opacity:.005"/></svg>