<svg xmlns="http://www.w3.org/2000/svg" width="200" height="208" style="shape-rendering:geometricPrecision;text-rendering:geometricPrecision;image-rendering:optimizeQuality;fill-rule:evenodd;clip-rule:evenodd"><path fill="#7d4bd7" d="M87.5 8.5q78.773-2.764 105.5 71 15.01 70.503-44.5 110.5Q82.4 223.209 28 173.5q-36.653-41.232-23-95 20.876-59.133 82.5-70m6 22q55.035-1.767 76 48.5 14.288 46.33-18 82-39.134 30.853-86 13-35.547-16.565-41.5-55.5-5.902-76.788 69.5-88m12 42q-1.503 23.992 23 22a1803 1803 0 0 0-1.5 59q-.75 2.75-3.5 3.5a841 841 0 0 1-58 0q-3.25-1.25-4.5-4.5-1-37.5 0-75 .75-2.75 3.5-3.5a832 832 0 0 0 41-1.5" style="opacity:.998"/><path fill="#7e4cd5" d="m145.5 146.5-3 2a20.7 20.7 0 0 1-5 1q.216 12.038-11 16.5-32.5 1-65 0-8.496-3.498-10.5-12.5a1444 1444 0 0 1 0-76Q53.59 67.408 63.5 64a553 553 0 0 1 47 0l4 2L136 87.5a1532 1532 0 0 1 2.5 52q2.545-1.296 3.5-4 1-37 0-74-.861-2.988-3.5-4.5-31.5-1-63 0-6.033 3.904-13 1.5 2.622-6.871 9-10.5a592 592 0 0 1 68-1q10.526 3.528 12.5 14.5 1 36.5 0 73-.542 7.593-6.5 12m-40-74a832 832 0 0 1-41 1.5q-2.75.75-3.5 3.5-1 37.5 0 75 1.25 3.25 4.5 4.5a841 841 0 0 0 58 0q2.75-.75 3.5-3.5.269-29.565 1.5-59-24.503 1.992-23-22" style="opacity:.968"/><path fill="#7d4ad8" d="M71.5 92.5q14.01-.25 28 .5 7.31 4.398 1 10-15 1-30 0-6.264-5.92 1-10.5" style="opacity:.897"/><path fill="#7c4ad8" d="M69.5 113.5q24.505-.25 49 .5 6.543 6.394-2 10-22.5 1-45 0-6.723-4.083-2-10.5" style="opacity:.942"/><path fill="#7d4ad7" d="M80.5 130.5q2.652-1.511 4 2a581 581 0 0 0 34 1.5q6.244 5.744-1 10a552 552 0 0 1-47 0q-5.977-5.071 0-10l13-1a10.5 10.5 0 0 0-3-2.5" style="opacity:.95"/><path fill="#889179" d="M145.5 146.5q-.822 2.84-3 5-1.593-1.388 0-3z" style="opacity:.063"/><path fill="#828282" d="M151.5 148.5q.543 4.475-3.5 8 .464-4.442 3.5-8" style="opacity:.055"/></svg>