<svg xmlns="http://www.w3.org/2000/svg" width="200" height="210" style="shape-rendering:geometricPrecision;text-rendering:geometricPrecision;image-rendering:optimizeQuality;fill-rule:evenodd;clip-rule:evenodd"><path fill="#7d4bd7" d="M89.5 8.5q66.439-2.67 98.5 55 27.825 66.827-23.5 117.5-47.71 38.53-105 16Q-3.37 164.536 2 93.5q15.02-72.27 87.5-85m-3 23q41.214-4.847 70.5 24 25.33 33.148 15 74-17.851 51.813-73 53-58.21-2.234-74-58-7.912-39.981 18-71 18.49-17.62 43.5-22" style="opacity:.998"/><path fill="#7c4ad9" d="M96.5 43.5q6.141-1.193 9.5 4l1 52A230 230 0 0 1 124.5 81q9.034-2.715 11 6.5a19.4 19.4 0 0 1-4.5 8L104.5 124q-4.299 2.185-9 1L65 92.5Q60.901 79.59 74.5 81A229 229 0 0 1 92 99.5l1-52q1.034-2.776 3.5-4" style="opacity:.921"/><path fill="#7d4ad8" d="M81.5 137.5h6q26.504.25 53-.5a9.5 9.5 0 0 0 1.5-2.5l1-19q4.9-6.65 12-2 4.794 14.438 0 29-3.962 6.966-11.5 9.5-44 1-88 0-11.017-4.018-13.5-15.5a90.5 90.5 0 0 1 0-19q2.187-8.338 10.5-5.5 2.25 1.25 3.5 3.5l1 20 1.5 1.5q11.49.75 23 .5" style="opacity:.901"/><path fill="#737370" d="M87.5 137.5h-1a208 208 0 0 1-4.5-5q-1-1 0-2 3.68 2.912 5.5 7" style="opacity:.027"/><path fill="#5e6751" d="M83.5 137.5h-2q-1.205-1.385-.5-3 2.125.867 2.5 3" style="opacity:.008"/><path fill="#7e7e7e" d="M152.5 149.5q.882 5.06-3.5 9 .81-4.66 3.5-9" style="opacity:.035"/></svg>