<svg xmlns="http://www.w3.org/2000/svg" width="100" height="95" style="shape-rendering:geometricPrecision;text-rendering:geometricPrecision;image-rendering:optimizeQuality;fill-rule:evenodd;clip-rule:evenodd"><path fill="#fe0000" d="M22.5 1.5q16.618-1.802 27 11Q65.277-5.466 86.5 6q18.085 17.14 6.5 39.5l-5 7-27 25a99 99 0 0 0-11.5 15 213 213 0 0 0-36.5-37q-18.184-19.21-7-43 6.534-8.37 16.5-11m3 8q16.575-.847 23.5 14Q59.213 3.595 79.5 13 93.74 24.27 85 40.5A148 148 0 0 1 59.5 65 85.4 85.4 0 0 0 49 76.5a571 571 0 0 0-33-31q-16.635-24.112 9.5-36" style="opacity:.954"/></svg>