<svg xmlns="http://www.w3.org/2000/svg" width="200" height="210" style="shape-rendering:geometricPrecision;text-rendering:geometricPrecision;image-rendering:optimizeQuality;fill-rule:evenodd;clip-rule:evenodd"><path fill="#7d4bd7" d="M89.5 8.5q66.439-2.67 98.5 55 27.825 66.827-23.5 117.5-47.71 38.53-105 16Q-3.37 164.536 2 93.5q15.02-72.27 87.5-85m-3 23q41.214-4.847 70.5 24 25.33 33.148 15 74-17.851 51.813-73 53-58.21-2.234-74-58-7.912-39.981 18-71 18.49-17.62 43.5-22m2 14q12.102.853 12.5 13 .75 1.75 2.5 2.5 8.874 1.21 17.5-.5a85 85 0 0 1 .5 13q-19.007-.25-38 .5a11.5 11.5 0 0 0-4.5 3.5 742 742 0 0 0-1.5 66h-20v-82a72.7 72.7 0 0 0 20-1.5 63 63 0 0 0 3.5-9.5q3.255-3.485 7.5-5m-3 96q1.385 1.205 3 .5-3.445-1.895-2.5-5.5 5.043 2.847 0-2-.75-25.995-.5-52 .165-.925 1-1.5 19.995-.75 40-.5a85 85 0 0 0 .5 13l1.5 1.5a85 85 0 0 0 13 .5v58h-56zm48-56q3.39 1.107.5 3a4.93 4.93 0 0 1-.5-3" style="opacity:.998"/><path fill="#7b48d5" d="M148.5 155.5q-2.353 4.093-7 5.5-28.5 1-57 0-6.84-2.89-7.5-10.5-11.13 1.72-22.5.5a11.3 11.3 0 0 1-3.5-1.5 2209 2209 0 0 1 0-94l1.5-1.5q9.987-.75 20-.5 6.621-20.8 27-12.5 6.806 4.537 8 12.5 10.013-.25 20 .5a9.5 9.5 0 0 1 1.5 2.5q.255 8.543 1.5 17a132 132 0 0 1 17.5 16 444 444 0 0 1 .5 66m-60-110q-4.245 1.515-7.5 5a63 63 0 0 1-3.5 9.5 72.7 72.7 0 0 1-20 1.5v82h20a742 742 0 0 1 1.5-66 11.5 11.5 0 0 1 4.5-3.5q18.993-.75 38-.5a85 85 0 0 0-.5-13q-8.626 1.71-17.5.5-1.75-.75-2.5-2.5-.398-12.147-12.5-13m-3 96q1.385 1.205 3 .5-3.445-1.895-2.5-5.5 5.043 2.847 0-2-.75-25.995-.5-52 .165-.925 1-1.5 19.995-.75 40-.5a85 85 0 0 0 .5 13l1.5 1.5a85 85 0 0 0 13 .5v58h-56zm48-56a4.93 4.93 0 0 0 .5 3q2.89-1.893-.5-3" style="opacity:.866"/><path fill="#7c49d7" d="M87.5 51.5q10.69.31 5 9.5-8.01 1.483-7.5-6.5 1.047-1.785 2.5-3" style="opacity:.932"/><path fill="#6843a2" d="M85.5 82.5q-.25 26.005.5 52 5.043 4.847 0 2-.945 3.605 2.5 5.5-1.615.705-3-.5a438 438 0 0 1 0-59" style="opacity:.161"/><path fill="#7b49d6" d="M95.5 105.5q17.507-.25 35 .5 4.306 4.26-1 7-16.5 1-33 0-5.455-3.141-1-7.5" style="opacity:.805"/><path fill="#7c49d8" d="M95.5 120.5q18.007-.25 36 .5 2.298 3.495-1 6a306 306 0 0 1-35 0q-3.856-3.383 0-6.5" style="opacity:.844"/><path fill="#6f42c0" d="M96.5 134.5q17.007-.25 34 .5 4.306 4.26-1 7a256 256 0 0 1-32 0q-7.4-3.002-1-7.5" style="opacity:.867"/><path fill="#81817c" d="M148.5 155.5q2.585-2.63 4.5-6 .061 5.284-4 9a4.93 4.93 0 0 1-.5-3" style="opacity:.035"/></svg>