<svg xmlns="http://www.w3.org/2000/svg" width="200" height="210" style="shape-rendering:geometricPrecision;text-rendering:geometricPrecision;image-rendering:optimizeQuality;fill-rule:evenodd;clip-rule:evenodd"><path fill="#7d4bd7" d="M89.5 8.5q71.22-2.035 101.5 62 22.757 71.267-35.5 117.5-53.877 33.74-109 2Q-10.525 148.65 5 79.5q21.234-60.713 84.5-71m7 22q72.924 3.427 79 76-2.345 60.498-61 74.5-43.924 7.468-74.5-24.5-26.597-37.424-11-81Q44.283 41.73 80.5 33a531 531 0 0 0 16-2.5" style="opacity:.998"/><path fill="#7b49d6" d="M83.5 43.5q13.509-.25 27 .5a11.53 11.53 0 0 1 3.5 4.5 116 116 0 0 0 2 13 22.6 22.6 0 0 0 7 4q7.8-4.296 16.5-4.5a118.4 118.4 0 0 1 15 25 16.2 16.2 0 0 1-1.5 3.5l-11 9a34 34 0 0 1-1.5 7.5q-9.03.452-18 1.5-2.241-.314-3.5-2-.933-21.908-22.5-25-25.54 4.587-20.5 30 6.164 15.06 22 14l3 2a135 135 0 0 0 0 20 42 42 0 0 0 5.5 12.5q-.48 2.48-3 3-10.662 1.386-21-1l-2.5-2.5a191 191 0 0 0-2.5-13.5q-3.66-4.22-9-4-5.95 2.4-12 4.5a10.3 10.3 0 0 1-4-1.5A229 229 0 0 1 40 122.5q-1-3 0-6l11-9q1-4.5 0-9a91 91 0 0 0-10-8q-2.133-3.795-1-8A238 238 0 0 1 53.5 61q3-1 6 0a74.6 74.6 0 0 0 11 4.5q2.966-1.44 6-3a75 75 0 0 0 3.5-15q1.034-2.776 3.5-4" style="opacity:.999"/><path fill="#7847d0" d="M128.5 109.5q15.996-.624 25.5 12l1-5q2.5-4 5 0a90.5 90.5 0 0 1 0 19q-9.627 1.715-19.5.5-3.038-1.791-1-4.5a74 74 0 0 1 12-1.5q-9.04-17.519-28-12-20.219 12.174-9.5 33.5 8.519 9.49 21 11 .77 4.99-4.5 5-31.106-6.717-25.5-38 6.586-16.354 23.5-20" style="opacity:1"/></svg>