<svg xmlns="http://www.w3.org/2000/svg" width="200" height="210" style="shape-rendering:geometricPrecision;text-rendering:geometricPrecision;image-rendering:optimizeQuality;fill-rule:evenodd;clip-rule:evenodd"><path fill="#7d4bd7" d="M89.5 8.5q66.439-2.67 98.5 55 27.825 66.827-23.5 117.5-47.71 38.53-105 16Q-3.37 164.536 2 93.5q15.02-72.27 87.5-85m-3 23q41.214-4.847 70.5 24 25.33 33.148 15 74-17.851 51.813-73 53-58.21-2.234-74-58-7.912-39.981 18-71 18.49-17.62 43.5-22" style="opacity:.998"/><path fill="#7c4bd5" d="M145.5 146.5v2q-1.016 13.767-14 18.5-20.51 2.504-24-18 2.21-3.139-1-5a423 423 0 0 0-23-12.5 121 121 0 0 0-18-11q-12.42 9.248-25 .5-11.196-11.083-4.5-25.5 12.72-15.42 29-4a1323 1323 0 0 0 42-25q-1.19-16.791 14.5-22.5 21.143-2.429 25 18.5-3.753 22.134-26 18.5-3.867-2.498-8-3l-40 23q-1.93 4.687 0 9.5l42 24q13.981-8.731 26.5 2a22.7 22.7 0 0 1 4.5 10" style="opacity:1"/><path fill="#6f6e6f" d="M83.5 131.5a31.4 31.4 0 0 0 4.5 5q1 1 0 2a28.6 28.6 0 0 1-6.5-6.5 2.43 2.43 0 0 1 2-.5" style="opacity:.09"/><path fill="#6b6b6b" d="M80.5 134.5a83 83 0 0 1 8 7.5q-5.553-1.794-8-7.5" style="opacity:.063"/><path fill="#90b34c" d="M145.5 148.5v-2q1.083-.627 1.5-2 1.16 2.779-1.5 4" style="opacity:.012"/><path fill="#7e7e7e" d="M152.5 149.5q.882 5.06-3.5 9 .81-4.66 3.5-9" style="opacity:.035"/></svg>