<svg xmlns="http://www.w3.org/2000/svg" width="100" height="100" style="shape-rendering:geometricPrecision;text-rendering:geometricPrecision;image-rendering:optimizeQuality;fill-rule:evenodd;clip-rule:evenodd"><path fill="#fefefe" d="M38.5-.5h22q30 9 39 39v22q-9 30-39 39h-22q-30-9-39-39v-22q9-30 39-39m4 11q32.042-2.364 44.5 27Q94.644 72.968 61.5 87 26.007 94.63 12 61.5q-6.953-39.132 30.5-51" style="opacity:.9"/><path fill="#fefffe" d="M30.5 23.5q9.4 8.894 19 18a229 229 0 0 0 18-18q4.5 3.5 8 8a229 229 0 0 0-18 18 229 229 0 0 0 18 18q-3.5 4.5-8 8a229 229 0 0 0-18-18 229 229 0 0 0-18 18q-4.5-3.5-8-8a229 229 0 0 0 18-18 229 229 0 0 0-18-18q3.535-4.03 7-8" style="opacity:.908"/></svg>