<svg xmlns="http://www.w3.org/2000/svg" width="200" height="200" style="shape-rendering:geometricPrecision;text-rendering:geometricPrecision;image-rendering:optimizeQuality;fill-rule:evenodd;clip-rule:evenodd"><path fill="#7d4ad9" d="M-.5-.5h200v200H-.5z" style="opacity:1"/><path fill="#f6f4fc" d="M77.5 66.5h-28v5q-.702 32.498-1.5 65-4.08 1.416-8.5 1 1.025-34.497.5-69-4.585-1.426-9.5-1v-4a789 789 0 0 0 42-2.5q3.315-6.817 3-14.5h5a118 118 0 0 1-1.5 19q-.575.835-1.5 1" style="opacity:1"/><path fill="#f5f2fb" d="M162.5 63.5h8v7h-8z" style="opacity:1"/><path fill="#a78fe2" d="M77.5 66.5q-13.227 1.49-27 1 .401 2.398-1 4v-5z" style="opacity:1"/><path fill="#f6f4fc" d="M138.5 72.5a43.1 43.1 0 0 1 13 1 28 28 0 0 0-1.5 5 118.5 118.5 0 0 0-26.5 5.5q-7.682 6.617-8.5 16.5 10.626-10.96 24.5-4.5 3.909 2.907 5.5 7.5 2.577 15.252-6 28-9.557 10.394-23.5 7.5-9.087-4.407-10.5-14.5-2.757-22.469 10-41 10.162-9.126 23.5-11" style="opacity:1"/><path fill="#fefefe" d="M164.5 82.5h4v56h-4z" style="opacity:1"/><path fill="#f3f0fb" d="M74.5 90.5q7.018-.25 14 .5 6.25 2.25 8.5 8.5a905 905 0 0 0 1.5 37h-6a32.4 32.4 0 0 0-.5-8q-7.567 10.365-20.5 8.5-18.08-10.554-3-25 11.025-4.577 23-3.5 1.232-17.49-16-12.5a39.6 39.6 0 0 0-7.5 7.5q-2.823-.282-3.5-3 2.57-7.57 10-10" style="opacity:1"/><path fill="#7e4bd9" d="M124.5 99.5q6.94-1.2 11.5 4 4.731 14.821-5.5 26.5-6.083 3.51-13 2-3.472-1.664-4.5-5.5a39.1 39.1 0 0 1-1-16q4.69-7.44 12.5-11" style="opacity:1"/><path fill="#7d4ad9" d="M81.5 112.5h10q2.073 20.172-18 19.5a11.53 11.53 0 0 1-4.5-3.5q-1.434-6.108 1.5-11.5 5.33-3.181 11-4.5" style="opacity:1"/></svg>