<svg xmlns="http://www.w3.org/2000/svg" width="1600" height="1600" style="shape-rendering:geometricPrecision;text-rendering:geometricPrecision;image-rendering:optimizeQuality;fill-rule:evenodd;clip-rule:evenodd"><path fill="#7d4ad9" d="M-.5-.5h1600v1600H-.5z" style="opacity:1"/><path fill="#fbfafd" d="M628.5 463.5q11.011-.25 22 .5a1688 1688 0 0 1-5.5 104.5q-.918 8.78-7.5 14.5-8.257 5.658-18.5 4.5a2370 2370 0 0 0-150.5-1 31773 31773 0 0 1-13 419.5 376 376 0 0 1-49 5 14.5 14.5 0 0 1-1-5 6313 6313 0 0 0 8.5-404.5q-3.289-9.289-12.5-12.5a101 101 0 0 0-18-1.5q-15.042.702-30 1.5a93.6 93.6 0 0 1-3-16 3.94 3.94 0 0 1 1-2 1206 1206 0 0 1 84-11q74.986-1.737 150-3 18.915-.066 27.5-16.5a150 150 0 0 0 9-35 1639 1639 0 0 0 5-40q1.075-.816 1.5-2" style="opacity:1"/><path fill="#f9f7fd" d="M1148.5 564.5c13.34-.167 26.67 0 40 .5l1.5 1.5c.82 14.575.66 29.075-.5 43.5-14.24.823-28.41.656-42.5-.5a460 460 0 0 1 0-43q1.08-.816 1.5-2" style="opacity:1"/><path fill="#b9a2e2" d="M1065.5 620.5c3.46-.982 7.13-1.315 11-1 .28 1.915-.05 3.581-1 5v-4z" style="opacity:1"/><path fill="#fcfbfe" d="M1065.5 620.5h10v4a194.5 194.5 0 0 1-9 36.5 1048 1048 0 0 0-95 9q-35.684 4.724-66 23-16.066 12.054-25.5 29.5-16.419 31.996-25.5 67-1.67 2.17-.5 5 1.075-.816 1.5-2 50.724-55.822 125-40.5 57.3 20.237 61.5 81.5c4.47 54.163-10.19 102.163-44 144-39.996 42.29-87.829 54.46-143.5 36.5q-32.14-16.14-45.5-49.5-16.172-47.71-11-98 5.236-75.452 39-143 22.97-42.466 63.5-68.5 48.153-24.29 102-29a1299 1299 0 0 1 63-5.5" style="opacity:1"/><path fill="#faf7fd" d="M1156.5 682.5q12.015-.25 24 .5l1.5 1.5q1.005 166 0 332l-1.5 1.5q-12 1.005-24 0l-1.5-1.5q-1.005-166 0-332 1.08-.816 1.5-2" style="opacity:1"/><path fill="#fbfafd" d="M759.5 999.5a241 241 0 0 1-31 1 436 436 0 0 1-7-44c-33.265 45.48-77.265 60.65-132 45.5q-46.67-20.705-48-72 2.776-62.033 62-81a342.8 342.8 0 0 1 66-12 936 936 0 0 1 51-3.5q1.278-23.874-4.5-47-9.031-26.013-36.5-30.5-38.35-7.958-71 13a138 138 0 0 0-13.5 14.5 682 682 0 0 1-10.5 22.5q-7.249.094-14-3l-16-6q14.143-50.144 65-65 34.786-7.737 70-2 53.244 11.744 62.5 65.5a5363 5363 0 0 1 2 142 588 588 0 0 0 5.5 62" style="opacity:1"/><path fill="#7d4ad9" d="M933.5 783.5q53.325-3.252 62.5 49c5.46 44.514-4.878 84.847-31 121q-35.075 41.191-87.5 27.5-19.838-9.338-28.5-29.5-9.975-27.068-9.5-56a329 329 0 0 1 6.5-58q24.072-30.105 58.5-46.5 14.376-4.968 29-7.5" style="opacity:1"/><path fill="#bea5e9" d="M854.5 789.5q-.356 1.937 1 3-.425 1.184-1.5 2-1.17-2.83.5-5" style="opacity:1"/><path fill="#7d4ad9" d="M699.5 859.5h21v64q-18.415 32.664-52 49.5-37.2 15.963-73-2-13.422-10.074-17.5-26.5-10.063-50.936 37.5-70.5a443 443 0 0 1 84-14.5" style="opacity:1"/><path fill="#c2b5d9" d="M699.5 859.5q10.722-1.488 22-1 .496 32.76-1 65v-64z" style="opacity:1"/><path fill="#ba9fea" d="M759.5 999.5q.814.09 1 1-16.24 1.98-32 0c10.514.33 20.847-.01 31-1" style="opacity:1"/></svg>