<svg xmlns="http://www.w3.org/2000/svg" width="300" height="300" style="shape-rendering:geometricPrecision;text-rendering:geometricPrecision;image-rendering:optimizeQuality;fill-rule:evenodd;clip-rule:evenodd"><path fill="#7d4ad9" d="M131.5-.5h36q110.151 20.152 132 130v41q-21.96 106.959-129 129h-42q-107.04-22.041-129-129v-41q21.849-109.848 132-130" style="opacity:1"/><path fill="#faf8fd" d="M56.5 192.5a61.5 61.5 0 0 1-3 14q-6.514.359-13 1a2003 2003 0 0 0 2.5-123q-.75-2.75-3.5-3.5-7.483-.75-15-.5-1.097-7.88 7-6.5a672 672 0 0 1 66-3q5.498-2.502 6.5-8.5a93.2 93.2 0 0 0 2.5-19h7q.25 14.509-.5 29-.344 4.437-3.5 7.5-24.995.75-50 .5-1.95 55.986-3 112" style="opacity:1"/><path fill="#d0c5ed" d="M263.5 73.5v13h12v-13q1.479 6.705 1 14h-14q-.479-7.295 1-14" style="opacity:1"/><path fill="#fcfcfe" d="M263.5 73.5h12v13h-12z" style="opacity:1"/><path fill="#faf9fd" d="M228.5 90.5h13a76 76 0 0 1-2 12q-14.525.87-29 2.5-16.495 1.617-26.5 14.5-6.423 10.284-8 22 16.89-18.285 40.5-10.5 11.072 5.573 14.5 17.5 4.338 29.971-15.5 52.5-16.24 13.626-37 9-14.495-5.496-18.5-20.5-7.816-43.214 17-79 10.475-11.368 25.5-15.5 13.076-3.095 26-4.5" style="opacity:1"/><path fill="#fcfbfe" d="M265.5 108.5h8v101h-8z" style="opacity:1"/><path fill="#f9f7fc" d="M106.5 122.5q11.592-.466 23 1.5 14.012 5.512 15.5 20.5.45 30.015 1.5 60-4.915.426-9.5-1a191 191 0 0 0-2-11q-17.923 21.085-43.5 10.5-15.92-14.2-6.5-33.5 10.699-12.746 27.5-13.5a125.6 125.6 0 0 1 23-1.5q.215-32.735-31-21.5-7.083 5.392-11 13.5-13.209-1.826-4.5-12 7.26-8.48 17.5-12" style="opacity:1"/><path fill="#7d4ad9" d="M194.5 139.5q10.907-1.636 19.5 5 7.032 12.316 3 26-2.66 14.576-13.5 24.5-22.413 13.471-31.5-10.5-3.304-14.647 1-29 9.165-10.424 21.5-16M128.5 162.5h6v19q-12.204 21.814-36 14.5-13.476-12.337-1-26 14.322-8.181 31-7.5" style="opacity:1"/><path fill="#af9ce0" d="M128.5 162.5q3.161-1.452 7-1 .486 10.281-1 20v-19z" style="opacity:1"/><path fill="#c5b5ea" d="M56.5 192.5v14h-3a61.5 61.5 0 0 0 3-14" style="opacity:1"/></svg>